<?xml version="1.0" encoding="utf-8"?>
<!-- Generator: Adobe Illustrator 18.0.0, SVG Export Plug-In . SVG Version: 6.00 Build 0)  -->
<!DOCTYPE svg PUBLIC "-//W3C//DTD SVG 1.1//EN" "http://www.w3.org/Graphics/SVG/1.1/DTD/svg11.dtd">
<svg version="1.1" id="Layer_1" xmlns="http://www.w3.org/2000/svg" xmlns:xlink="http://www.w3.org/1999/xlink" x="0px" y="0px"
	 viewBox="0 0 23.4 36.5" enable-background="new 0 0 23.4 36.5" xml:space="preserve">
<path fill-rule="evenodd" clip-rule="evenodd" fill="#4B98C7" d="M17.7,19h1.7v-0.5c0-0.3,0.3-0.7,0.7-0.7h1.2
	c0.3,0,0.7,0.3,0.7,0.7v2.4c0,5.1-4,9.7-9,10.3v1.7h5.3c0.4,0,0.7,0.3,0.7,0.8v1.2c0,0.4-0.3,0.7-0.7,0.7H5.1
	c-0.3,0-0.7-0.3-0.7-0.7v-1.2c0-0.4,0.3-0.8,0.7-0.8h5.4v-1.7c-5.1-0.6-9-5.2-9-10.3v-2.4c0-0.3,0.3-0.7,0.7-0.7h1.2
	c0.4,0,0.8,0.3,0.8,0.7V19h1.7c0-3.7,0-7.3,0-11c0-3.3,2.7-6,6.1-6c3.2,0,6,2.6,6,6C17.7,11.6,17.7,15.3,17.7,19L17.7,19z
	 M11.8,27.4c3.2,0,6-2.7,6-6v-1.3h1.7v0.8c0,4.3-3.5,7.8-7.7,7.8c-4.3,0-7.8-3.5-7.8-7.8v-0.8h1.7v1.3C5.7,24.7,8.4,27.4,11.8,27.4
	L11.8,27.4z"/>
</svg>
